<svg width="10" height="10" viewBox="0 0 10 10" fill="none" xmlns="http://www.w3.org/2000/svg">
<path fill-rule="evenodd" clip-rule="evenodd" d="M9.81286 1.12981C9.9343 1.00407 10.0015 0.835672 9.99997 0.660874C9.99846 0.486076 9.92834 0.318868 9.80474 0.195262C9.68113 0.0716569 9.51392 0.00154415 9.33913 2.52016e-05C9.16433 -0.00149374 8.99593 0.0657028 8.87019 0.187141L5.00819 4.04914L1.14619 0.187141C1.02046 0.0657028 0.852056 -0.00149374 0.677258 2.52016e-05C0.50246 0.00154415 0.335252 0.0716569 0.211646 0.195262C0.088041 0.318868 0.0179282 0.486076 0.0164093 0.660874C0.0148903 0.835672 0.0820869 1.00407 0.203526 1.12981L4.06553 4.99181L0.203526 8.85381C0.139852 8.9153 0.0890639 8.98887 0.0541246 9.0702C0.0191852 9.15154 0.000794382 9.23902 2.51714e-05 9.32754C-0.000744039 9.41606 0.0161236 9.50385 0.0496442 9.58578C0.0831648 9.66771 0.132667 9.74214 0.195262 9.80474C0.257857 9.86733 0.332292 9.91683 0.414223 9.95036C0.496154 9.98388 0.58394 10.0007 0.67246 9.99997C0.760979 9.99921 0.848459 9.98081 0.929795 9.94587C1.01113 9.91094 1.08469 9.86015 1.14619 9.79647L5.00819 5.93447L8.87019 9.79647C8.99593 9.91791 9.16433 9.98511 9.33913 9.98359C9.51392 9.98207 9.68113 9.91196 9.80474 9.78835C9.92834 9.66475 9.99846 9.49754 9.99997 9.32274C10.0015 9.14794 9.9343 8.97954 9.81286 8.85381L5.95086 4.99181L9.81286 1.12981Z" fill="white"/>
</svg>
