<svg width="43" height="37" viewBox="0 0 43 37" fill="none" xmlns="http://www.w3.org/2000/svg">
<path d="M41.8911 31.6193L24.1761 1.11427C22.6988 -0.371423 20.3017 -0.371423 18.8244 1.11427L1.10798 31.6193C-0.369328 33.1036 -0.369328 35.5129 1.10798 37H41.8897C43.3699 35.5129 43.3699 33.1036 41.8911 31.6193ZM19.8687 12.0648C19.8687 10.8851 20.8196 9.93023 21.9913 9.93023C23.1629 9.93023 24.1139 10.8851 24.1139 12.0648V22.0264C24.1139 23.2047 23.1629 24.161 21.9913 24.161C20.8196 24.161 19.8687 23.2047 19.8687 22.0264V12.0648ZM22.004 31.2878C20.8324 31.2878 19.8814 30.3343 19.8814 29.1532C19.8814 27.9748 20.8324 27.0185 22.004 27.0185C23.1757 27.0185 24.1266 27.9748 24.1266 29.1532C24.1266 30.3343 23.1757 31.2878 22.004 31.2878Z" fill="white"/>
</svg>
